<svg id="Layer_1" data-name="Layer 1" xmlns="http://www.w3.org/2000/svg" viewBox="0 0 364 256"><title>build-connections</title><path d="M238.07,103.73q1.12-36.24,2.15-72.49a44.48,44.48,0,0,0-.31-9.33c-1.42-7.62-8.57-13.5-15.34-13s-12.46,6.85-12.89,15.3c-.37,7.26-.19,14.54-.37,21.82q-.79,32-1.68,63.92c0,1.56-.15,3.12-.21,4.67-.12,3.14-1,5.93-4.74,5.84-3.92-.09-4.14-3.14-4.14-6.19q.08-30.41.1-60.83c0-11.18.07-22.35.06-33.53a36.37,36.37,0,0,0-.41-6.22C198.84,5.37,192.07-.51,184.81,0c-7.5.57-12.83,7-12.89,15.91-.09,13.25,0,26.51-.07,39.76q-.12,29.63-.35,59.26c0,3.27.84,7.26-3.91,8.09-4.37.77-4.95-3-6-5.83C151,88.19,140.31,59.17,129.94,30c-3.45-9.68-10.71-15.16-18.35-12.78-8,2.49-12.28,11.84-9,21.27C112.24,66,122.21,93.36,132,120.76c.44,1.22.94,2.43,1.32,3.67.86,2.78,2,5.87-1.72,7.32-4.08,1.61-5.5-1.47-6.66-4.54q-11.16-29.54-22.29-59.1c-2.1-5.59-4.07-11.23-6-16.88-3.16-9.16-11-14.17-18.29-11.68-7.68,2.62-11.9,11.68-8.8,20.69C75.93,78.67,83,96.84,89.31,115.29c10.5,30.8,18.17,62.46,25,94.16,5.64,26.11,32.67,47.81,63,46.49a114.37,114.37,0,0,0,41.46-10.13c21.11-9.36,35.53-25.06,43.22-46.72,9.66-27.19,19-54.48,28.36-81.78,3.06-8.95-.73-16.82-8.88-19.6-7.71-2.63-15.17,1.18-18.76,9.52q-8.78,20.33-17.64,40.63C239.07,133.19,237.61,118.59,238.07,103.73Z" style="fill:#d99e82;stroke:#c1694f;stroke-miterlimit:10"/><path d="M233.2,152.18c-13.19.67-22.05,36.78-19.83,80.75" style="fill:none;stroke:#c1694f;stroke-linecap:round;stroke-miterlimit:10;stroke-width:10px"/></svg>