<?xml version="1.0" encoding="utf-8"?>
<!-- Generator: Adobe Illustrator 20.1.0, SVG Export Plug-In . SVG Version: 6.00 Build 0)  -->
<svg version="1.1" id="Layer_1" xmlns="http://www.w3.org/2000/svg" xmlns:xlink="http://www.w3.org/1999/xlink" x="0px" y="0px"
	 viewBox="0 0 28 28" style="enable-background:new 0 0 28 28;" xml:space="preserve">
<style type="text/css">
	.st0{fill:#FFFFFF;}
</style>
<g id="layer1_2_" transform="translate(-39.499999,287.13782)">
</g>
<path class="st0" d="M27.2,0H0.8C0.4,0,0,0.4,0,0.8v26.3C0,27.6,0.4,28,0.8,28h26.3c0.5,0,0.8-0.4,0.8-0.8V0.8C28,0.4,27.6,0,27.2,0
	z M23.9,9.5h-2.1c-1.3,0-1.9,0.5-1.9,1.9v2.5h3.9l-0.5,3.9h-3.4v10.1h-4.1V17.8h-3.4v-3.9h3.4v-3c0-3.1,1.9-5.1,5-5.1
	c1.8,0,3.1,0.1,3.1,0.1V9.5z"/>
</svg>
