<svg id="Layer_1" data-name="Layer 1" xmlns="http://www.w3.org/2000/svg" viewBox="0 0 363.89 252.87"><title>knowledge-vs-experience</title><path d="M337.42,180.16a105.49,105.49,0,0,0-15.46.61,143.45,143.45,0,0,1-17.86,1c-2.54-.09-3.56.66-3.51,3.5.17,8.75.06,17.52-.11,26.27,0,2.14.7,3.1,2.73,3,3.88-.15,7.7.79,11.66,0,5.27-1.06,10.68-.3,16-.26,4.84,0,9.67.1,14.51.22a2.75,2.75,0,0,0,2.68-1.65,15.06,15.06,0,0,1,4.5-5,6.74,6.74,0,0,1,10.14,2.57c2.94,5.75.24,14.23-5.49,17.19-3.09,1.6-6,1-8.73-.87a6.73,6.73,0,0,1-2.89-7.58c.54-2.14,0-2.63-2.14-2.59q-8.18.16-16.38-.12c-2.17-.07-3,.51-2.76,2.75a122.89,122.89,0,0,1,1.1,20.66c0,.83,0,1.67,1,2,2.61.91,3.08,3.44,3.83,5.55a5.07,5.07,0,0,1-1.82,5.83A6,6,0,0,1,322,254a3.8,3.8,0,0,1-2.29-4.56,3.47,3.47,0,0,1,.65-1.71c5.21-5.36,2.49-12,2.86-18.1.22-3.76-.64-7.58-.88-11.39-.09-1.37-.32-2.09-1.93-1.93-6.13.62-12.28,1.14-18.43.22-1.36-.2-1.62.61-1.58,1.64.13,3.31-1,6.8,1.53,9.77a4.55,4.55,0,0,1,.73,2.33c.28,2.23.13,4.37-2.06,5.73a4,4,0,0,1-4.64-.2,5.55,5.55,0,0,1-2.41-5.92,6.31,6.31,0,0,1,2.27-4.29c2.71-1.78,2.78-4.3,2.45-6.93-.45-3.57.22-7.09.18-10.63-.08-7.52-.31-15,.23-22.56.17-2.31-.5-3.44-3-3.34-4.93.2-9.86.27-14.8.4-1.54,0-2.43.45-2.26,2.38,1.46,17.17.65,34.4,1.18,51.6.06,2.05.07,3.76,2.53,5s3.25,4.16,2.73,7c-.54,3-3.1,5.81-5.7,6.32a5.07,5.07,0,0,1-6-4.39,8.67,8.67,0,0,1,3-8.34,3.53,3.53,0,0,0,1.49-3.08c-.89-17.8.25-35.65-1-53.45-.15-2-.76-2.61-2.75-2.6s-2.72.89-2.61,2.8c.16,2.83-.09,5.57,1.16,8.41,2,4.55.15,9.42-3.62,11.24-1.75.85-3.57,1.16-5.22-.22s-1.56-3.06-1-4.82c1-3.09,2.25-6.09,5-8a3.51,3.51,0,0,0,1.61-3.33c.15-10.1.24-20.19-.25-30.29-.1-2-.55-2.85-2.82-2.76-4.84.18-9.59,1.39-14.46,1.1-1.91-.11-2.31.94-2.42,2.69q-1.53,24.07-3.26,48.12c-.3,4.21-.81,8.42-1.37,12.6-.22,1.61,0,2.49,1.62,3.36A6.33,6.33,0,0,1,243,235.7a4.17,4.17,0,0,1-4.47-4.73c.16-2.07.5-4.34,1.93-5.78,2.47-2.47,2.36-5.51,2.71-8.51.06-.51,0-1,.08-1.54.41-6.29.41-6.29-6.11-6a35,35,0,0,1-4.32.14c-3.54-.28-6.54-.39-8.39,3.86-1.31,3-5.21,3.7-8.12,2.56-2.73-1.07-4.69-4.43-4.45-7.83a13.14,13.14,0,0,1,2.1-6.4c.33-.5,1.26-1.15-.09-1.59-.77-.25-1.4-.66-1-1.54.3-.65,1-.49,1.65-.53,7.75-.56,9.32.42,12.26,8.1a1.82,1.82,0,0,0,2.09,1.29c4.43,0,8.86-.07,13.29-.12,1.76,0,2.16-1.2,2.26-2.69q1-14.66,2-29.31c.34-4.94.61-9.88,1.11-14.8.21-2.1-.37-2.8-2.46-2.55-1.42.17-2.88,0-4.32,0s-3.55-1-4.12.8-.91,3.94.4,5.92c3,4.54,2.34,9.29-1.63,13.07a8.06,8.06,0,0,1-10.46.88c-2.61-2-3-5.43-.89-9.25s4.3-7.34,9.31-7.54c1.18,0,.88-1.24.9-2,.35-10.82.64-21.64,1-32.45,0-1.42-.36-2-1.85-2.09a38.72,38.72,0,0,0-5.84.5c-1.4.12-1.42,1.21-1.7,2.21a10.16,10.16,0,0,1-4.75,6.58c-3.82,2.12-7.86.16-8.15-4.16a15.26,15.26,0,0,1,4-11.08c2.77-3.2,7-2.13,8.46,2.08.74,2.09,1.58,2.42,3.72,2.15,4.48-.57,9-.59,13.42-1.82,1.17-.33,2.12-.48,2.07-2.06-.18-5.22.24-10.43-.44-15.68-.32-2.46.4-5.21.34-7.85,0-1.42-.48-2-2-1.91-4.73.23-9.47.28-14.2.45-3.54.13-6.92.07-9.6,3.44-2,2.55-5.32,1.75-8.05.51s-5-3.38-5-6.8a11.41,11.41,0,0,1,4.82-9.56c1.15-.87,2.15-1.54,3.41.51,1,1.61,3.57,1.84,5.16,3.3s3.08,3,2.91,5.47c-.09,1.19.23,1.56,1.57,1.42a133.87,133.87,0,0,1,17.91-.72c2.06.07,3.13-.57,2.65-2.84a8.77,8.77,0,0,1-.13-2.47c.2-2.59,0-4.51-3.12-5.67s-3.76-4.22-2.73-7c1.44-4,4.16-6.14,7.24-5.85,4.39.43,6.74,2,7.31,5,.71,3.64-1,6.86-5,8.58a2.53,2.53,0,0,0-1.81,3c.24,2.52.71,5,1,7.47.3,2.24-.1,5-.24,7.47-.09,1.51.35,2.39,2.08,2.14,4.06-.6,8,.45,12,1,5.44.81,10.66-.69,16-.95,1.36-.07,1.17-1.18,1.22-2.09.9-13.91.56-27.82.08-41.73-.06-1.64-.32-2.83-2.14-3.58a4.5,4.5,0,0,1-2.92-5c.53-4.07,2.7-7.31,5.5-10.14,1.16-1.17,2.34-.62,3.49.45,4.51,4.23,4.84,12.94-1,15.27-1.14.45-1,1.36-1,2.31a353.85,353.85,0,0,1,0,41.41c-.14,2,.47,2.63,2.57,2.5,7.79-.5,7.76-.43,7.86-8.27.08-6.08.24-12.16.45-18.23.06-1.68-.25-2.73-2-3.58-3.44-1.66-4.25-4.43-2.82-8A15.72,15.72,0,0,1,289,58.39c2.94-3.17,5.31-3,7.79.47a8.92,8.92,0,0,1-2.84,13c-2,1.07-1.21,2.63-1.22,4,0,1.82,1.45.92,2.32.91,8-.06,16,.86,24,1.4,5.61.38,11.3-.55,16.95-.4,4.31.11,7.46-.74,8.31-5.5a1.21,1.21,0,0,1,.35-.5c1.84-2,2.82-5.94,6.33-4.72,4.52,1.57,7,7.79,5.36,11.48-1.42,3.14-6.19,5.27-9.56,3.21-5.6-3.43-11.31-1.57-17-1.46a145.1,145.1,0,0,1-19.09-.74,129,129,0,0,0-16-.65c-1.53,0-2.09.74-2.1,2.32,0,5.67-.23,11.34-.32,17,0,.76-.41,1.9.68,2.1a2.28,2.28,0,0,0,2.69-1c.19-.37.38-.73.6-1.08,1.1-1.79,2.36-3.79,4.64-3.57s4,1.91,5.07,4c3.13,5.85.39,11.83-5.47,12-3.27.08-5.81-1.87-6-4.93-.15-2.15,0-2.65-3-2.65a113.28,113.28,0,0,0-14.93,1.18,73.11,73.11,0,0,1-24.57-.44,2,2,0,0,0-.31,0c-5-.25-5-.23-5,4.75,0,3.5,0,7-.07,10.51,0,1.57.35,2.25,2.09,2a40.51,40.51,0,0,1,10.48.11,4.41,4.41,0,0,0,4.43-1.39c1.94-2.25,6.44-1.66,8.29.81,2.15,2.87,1.94,8.59-.42,11.33a6.58,6.58,0,0,1-7.79,2A5.53,5.53,0,0,1,260.4,127c1-3.64-.47-4.14-3.42-4-2.26.1-4.53,0-6.8,0a4.28,4.28,0,0,0-4.11,2.13c-.85,1.22-1.81-2.08-4.08-1.49-4.58,1.18-4.71.85-4.86,5.58-.26,8.24-.44,16.49-.69,24.73,0,1.18,0,1.68,1.56,1.73,10.83.31,21.52-1.4,32.27-2.16,4.72-.33,9.46-.55,14.19-.61,1.92,0,2.78-.43,2.73-2.55-.12-4.95-.2-9.89-.81-14.81a3.43,3.43,0,0,0-1.94-2.86c-3.19-1.8-3.73-3.86-2.32-7.28,1.94-4.73,4.19-6.19,7.88-5.14,2.92.83,4.66,3.38,4.68,6.84,0,3.29-1.38,5.48-4.43,6.21-1.65.4-2.16.89-1.88,2.62a86.45,86.45,0,0,1,.76,14.5c0,1.69.35,2.46,2.29,2.12,2.79-.48,5.42-.95,7.08-3.69a6.13,6.13,0,0,1,2.73-2.44c4.56-1.8,8.32-1.34,9.42,4.6.91,4.88-2.51,10.39-7.21,12.07-4.87,1.74-8.93-1.14-8.47-6.33.22-2.47-.41-2.6-2.56-2.29a104.68,104.68,0,0,1-18.19.85c-2.5-.08-3.44.58-3.26,3.3a145.51,145.51,0,0,1,.47,19.77c-.13,1.89.5,2.55,2.43,2.49,5.35-.18,10.65-.84,16-.84a315.06,315.06,0,0,0,36.66-1.85c6.81-.79,5.58.58,5.48-6.47-.15-10.91-.23-21.83-.36-32.74,0-3.4-.29-6.8-.2-10.2,0-1.31-.73-1.81-1.43-2.51a5.88,5.88,0,0,1-1.47-7.05,7.52,7.52,0,0,1,6.32-4.82c2.8-.26,5.14,2,5.84,5.33s-1,7.18-4.4,7.81c-3.08.58-2.94,2.28-2.86,4.5.16,4.12.26,8.24.24,12.37,0,1.38.26,2.15,1.79,2.19,4.12.11,8.24.26,12.35.42a1.82,1.82,0,0,0,2-1.49,10.78,10.78,0,0,1,2.64-4.13c1.58-1.69,3.48-2.71,5.79-2.14s3.45,2.49,4.07,4.66c1,3.36-1.05,7.1-4.65,8.82-3.21,1.53-5.55.89-7.84-2.48a2.7,2.7,0,0,0-2.59-1.16c-3.91-.14-7.83-.23-11.73-.48-1.52-.1-2,.36-2,1.87.26,8.44.44,16.89.69,25.33.06,2.17,2.69,3,5,1.32a16,16,0,0,1,5.95-2.44c2.83-.64,4.82.57,6.06,3.08a9.39,9.39,0,0,1-1.78,10.34,9.8,9.8,0,0,1-9.94,2.56,4.89,4.89,0,0,1-3.44-5.82A42.45,42.45,0,0,1,337.42,180.16Zm-106.16-2.68c1.64,0,3.43-2,4.58-4.73,1.07-2.59,1-5-1-7.18-.55-.61-1.2-1.35-2.09-1-3.63,1.39-6.57,3.5-7.41,7.62C224.6,175.72,226,177.49,231.26,177.49ZM214.19,208c-.05,3.39,1.86,5.82,4.57,5.8s5.59-3.15,5.72-6.57c.12-3-2.6-6.94-4.85-7.14C217.11,199.91,214.25,204.08,214.19,208Zm-6.3-116.82c0,3.14,2.25,5.34,6,5.83a4.32,4.32,0,0,0,5-2.72c.95-2.19,1.24-4.34-.85-6.19-1.57-1.38-4.11-1.31-5.24-2.22-3.25-2.63-3.06.64-4,1.76A5.54,5.54,0,0,0,207.89,91.22Zm63.07,35c0-3-.65-4.25-2.24-4.24-4.14,0-6.11,1.92-6.2,5.94a3.89,3.89,0,0,0,3.84,4.26C268.89,132.06,270.95,129.4,271,126.2Zm78.12-46.32c3.18.18,5.27-1.37,5.36-3.71.11-2.74-1.78-5.54-3.81-5.65-2.34-.13-5.36,3.17-5.47,6.12S347.39,79.59,349.08,79.87ZM296,64c0-.23-.05-.74-.14-1.25-.52-3.06-1.44-3.51-4.15-2.12-.43.22-1,.22-1.43.42-1.55.67-3,4.28-2.38,6.17.69,2.06,2.43,2.69,4.39,2.59C294.58,69.66,296,67.48,296,64Zm55.74,84.4A2.83,2.83,0,0,0,354.9,151a5.59,5.59,0,0,0,5.25-5.75c-.1-1.88-.83-3.12-3-3A6.12,6.12,0,0,0,351.72,148.37Zm-63.81-17.15c3.07,0,4.76-1.63,4.49-4.18-.19-1.81-.47-4-2.79-4.23-2.86-.31-6,2.61-5.84,5.33S286.23,131,287.91,131.22ZM338.46,121c0-2.45-1-3.78-3.64-3.75a4.23,4.23,0,0,0-4.44,4.4c.11,2.36,1.22,3.84,3.79,3.86A4.14,4.14,0,0,0,338.46,121ZM282.74,246.86c-.28-1.62-.35-3.71-3.17-3.63-1.94.06-4,2.7-4,5.38,0,2,.51,3.79,3,3.83C280.74,252.47,282.7,249.94,282.74,246.86Zm-11.89-49.32c-.18-.89.35-2.48-1.09-2.95-1.67-.53-2.17,1.12-2.89,2.18a12,12,0,0,0-1.9,4.49c-.42,2.22.61,2.85,2.61,2.16C270.26,202.5,270.84,200.29,270.84,197.53ZM328,248.4c-.19-1.11-.34-2.76-2.32-3-1.31-.17-3.81,3.15-3.72,4.78s1.26,2.08,2.56,2C326.66,252.15,328.1,251.21,328,248.4Z" transform="translate(-0.06 -2.05)" fill="#fff"/><path d="M158.55,215c-.33,4.33-1.61,8-5,10.74s-6.31,2.93-9.95.78c-3.07-1.82-4.37-4.92-3.35-8.82a18.36,18.36,0,0,1,5.82-9.64c4.63-3.93,10.32-2.14,11.94,3.75A28,28,0,0,1,158.55,215Z" transform="translate(-0.06 -2.05)" fill="#fff"/><path d="M99.41,145c3.33-.33,4.73,1.78,5.56,4.36,1.81,5.61-3,12.89-8.9,13.56a5.67,5.67,0,0,1-6.48-4.4C88.15,153.35,93.9,144.31,99.41,145Z" transform="translate(-0.06 -2.05)" fill="#fff"/><path d="M6.38,207.33a14.19,14.19,0,0,1,1.3-5c.49-1.16,2.25-2.41-.25-3.5-.62-.27-.16-1,.52-1.34,3.2-1.44,8.33-.26,10.81,2.49A9.52,9.52,0,0,1,20,211.36c-2,3.33-5.46,4.94-8.57,4S6.25,211.15,6.38,207.33Zm2.27.28c0,3.19,1.83,5.51,4.46,5.56,3.17.06,5.79-3,5.8-6.65,0-3.14-2.67-6.91-5-7S8.69,203.8,8.65,207.61Z" transform="translate(-0.06 -2.05)" fill="#fff"/><path d="M33.42,168.81c-.07,7-6.19,12-11.92,10.13-3.35-1.11-4.88-3.72-4.11-7.19a15.37,15.37,0,0,1,5-8.29c4.17-3.7,9-2.33,10.63,3A15.11,15.11,0,0,1,33.42,168.81ZM24.26,177c2.88-.05,5.08-2,6.34-5.42a5.91,5.91,0,0,0-1.78-6.95c-.44-.4-.92-1.14-1.52-.81-3.15,1.72-6.41,3.26-7.43,7.3C19,174.71,20.54,177.05,24.26,177Z" transform="translate(-0.06 -2.05)" fill="#fff"/><path d="M146.5,181.12a9.46,9.46,0,0,1-12.17,9.06,4.85,4.85,0,0,1-3.63-3.81c-1.24-5.55,5.26-13,10.87-12.39C144.56,174.28,146.53,177.13,146.5,181.12Z" transform="translate(-0.06 -2.05)" fill="#fff"/><path d="M.06,90.38a11.65,11.65,0,0,1,5.07-9c1-.76,2.07-1.12,3,.47,1.1,1.8,3.51,1.86,5.08,3.32,3.28,3.05,4.09,5.59,2.25,9.52-1.6,3.42-4.51,4.76-8.4,3.87C2.75,97.58.09,94.64.06,90.38Zm6.32-7.17a10.13,10.13,0,0,0-4,6.31A5.08,5.08,0,0,0,4.76,95.1c2.07,1.31,4.29,2.17,6.66.86,2.17-1.19,2.61-3.33,2.5-5.59S11,85.64,8.43,85.62C7,85.61,6,85.47,6.38,83.21Z" transform="translate(-0.06 -2.05)" fill="#fff"/><path d="M68,125.62a8.33,8.33,0,0,1-3.9,7.33,6.08,6.08,0,0,1-9.39-5,12.85,12.85,0,0,1,2-7c1-1.8,2.31-3.82,4.68-3.29,2.59.57,5.6,1.06,6.11,4.61C67.63,123.4,67.8,124.51,68,125.62Zm-2.61-.43c-.41-1.21.72-3.68-1.9-3.78-4.52-.16-6.36,1.74-6.43,5.94,0,2.45,1,3.94,3.58,4C63.61,131.48,65.29,129.37,65.36,125.2Z" transform="translate(-0.06 -2.05)" fill="#fff"/><path d="M20.67,125.39a10.93,10.93,0,0,1-4.36,8.06,5.56,5.56,0,0,1-6.09.61A5,5,0,0,1,7.38,129,17.57,17.57,0,0,1,11,119c2.5-3.38,6.94-2.65,8.7,1.19A11.43,11.43,0,0,1,20.67,125.39Z" transform="translate(-0.06 -2.05)" fill="#fff"/><path d="M151.39,75.31c.07,3-1.57,4.78-4.15,5.86-2.91,1.22-7.1.47-8.9-1.62-1.93-2.24-1.27-4.58-.09-6.89a7.28,7.28,0,0,1,.78-1.33c1.71-2.07,2.8-5.25,6-5.07C147.8,66.41,151.37,72,151.39,75.31Zm-7.62,4c3.52,0,5.21-1.49,5.15-4.26s-1.81-5-4-5c-2.42,0-5.4,3.34-5.3,6.15S142.06,79,143.77,79.32Z" transform="translate(-0.06 -2.05)" fill="#fff"/><path d="M39.11,67.64c5.3.21,8.3,2.72,8.12,6.79a8,8,0,0,1-8.3,7.41c-3.76-.08-7-3.18-6.86-6.51C32.26,71.63,36,67.52,39.11,67.64Z" transform="translate(-0.06 -2.05)" fill="#fff"/><path d="M101.83,103.49a6.47,6.47,0,0,1-3.88,5.87,6.4,6.4,0,0,1-7.26-.86c-2.25-2-2.12-4.53-1.42-7.14.08-.3.16-.6.26-.89,1.52-4.4,4.08-6.89,6.54-6.37C98.91,94.7,101.82,99.12,101.83,103.49Z" transform="translate(-0.06 -2.05)" fill="#fff"/><path d="M93,63.38c.09,5.46-3.47,9-7.86,8.11s-6.46-4.7-4.69-8.88a14.36,14.36,0,0,1,1.84-3.2c1.42-1.83,2.81-4.54,5.45-3.77A7.13,7.13,0,0,1,92.82,62C92.87,62.56,92.95,63.06,93,63.38Zm-2.43.16c-.29-1.6.05-4.14-2.63-4.49-2.43-.32-5.81,3.64-5.85,6.33a4.2,4.2,0,0,0,4.27,3.93C88.88,69.25,90.56,67.08,90.56,63.54Z" transform="translate(-0.06 -2.05)" fill="#fff"/><path d="M79.64,46.3c0,4.27-1.59,7.32-4.06,8.23a6.19,6.19,0,0,1-6.81-1.59A4.32,4.32,0,0,1,67.33,49a18,18,0,0,1,5.56-10.11c1-1,2.18-.73,3.26.27A10.31,10.31,0,0,1,79.64,46.3Z" transform="translate(-0.06 -2.05)" fill="#fff"/><path d="M82.59,133.09c-3.8-.05-6.76-2.47-6.66-5.46C76,124.33,79.76,119,82,119a7.45,7.45,0,0,1,7.3,7.62C89.29,130.55,86.6,133.14,82.59,133.09Zm-.39-2.43c3.19.07,4.62-1.25,4.64-4,0-2-.44-4-2.54-4.4-2.79-.58-5.89,2.24-6,5.08S80.54,130.35,82.2,130.65Z" transform="translate(-0.06 -2.05)" fill="#fff"/><path d="M157.05,144.87c.05,3.95-3.63,7.92-7.47,8.07a5.6,5.6,0,0,1-5.73-5.29c-.1-4.14,4.09-9,7.76-9.05C154.65,138.57,157,141.28,157.05,144.87Zm-2.26.21c-.22-1.72-.56-3.37-3-3.39a5.73,5.73,0,0,0-5.51,5.37c-.11,2.07.73,3.38,3,3.43C151.92,150.55,154.68,147.88,154.8,145.08Z" transform="translate(-0.06 -2.05)" fill="#fff"/><path d="M135.34,120.59c0,4.06-2.86,7-6.71,6.88a6.56,6.56,0,0,1-6.16-6.47c.06-3.47,3.83-7.23,7.2-7.18S135.37,116.73,135.34,120.59ZM128.92,125c2.55,0,4.1-1.88,4-4.75-.08-2.35-1-3.81-3.65-3.71a4.69,4.69,0,0,0-4.54,4.49A4.05,4.05,0,0,0,128.92,125Z" transform="translate(-0.06 -2.05)" fill="#fff"/><path d="M79.69,246.67c0,4-3.4,7.76-6.94,7.71-2.85,0-5.12-2.86-5-6.27.1-4.1,3.31-8,6.6-8.08C77.34,240,79.73,242.94,79.69,246.67Zm-2.36-.31c-.44-1.67-.47-3.81-3.28-3.74-2,.05-4,2.72-3.95,5.61,0,1.87.41,3.56,2.74,3.65S77.36,249.14,77.33,246.36Z" transform="translate(-0.06 -2.05)" fill="#fff"/><path d="M67.74,196.6c-.06,5-2,7.79-5.48,8.72-3.24.86-5.61-1.07-5.16-4.38a14.42,14.42,0,0,1,4.47-8.56c2.66-2.55,4.74-1.9,5.75,1.68A16.41,16.41,0,0,1,67.74,196.6Zm-2.46.28c-.26-.74.58-2.38-1-2.83-1.41-.4-2.12.92-2.82,1.93a14.38,14.38,0,0,0-2.06,4.76c-.52,2.09.63,2.68,2.38,2.19C64.63,202.14,65.47,200,65.28,196.88Z" transform="translate(-0.06 -2.05)" fill="#fff"/><path d="M33.06,230.32c.13-4.45,2.43-7.73,5.34-7.61A6.18,6.18,0,0,1,44,229.12a6.57,6.57,0,0,1-6.61,6C34.63,235.06,33,233.23,33.06,230.32Z" transform="translate(-0.06 -2.05)" fill="#fff"/><path d="M118.85,253.95c-2.9-.12-4.88-2-4.72-4.59.19-3,4.57-8,7-7.93,1.52,0,4.06,4.56,4,7A5.67,5.67,0,0,1,118.85,253.95Zm3.8-6c-.39-1.17-.38-2.95-2.39-3.18-1.53-.18-3.72,2.78-3.68,4.71s1.55,2.19,2.8,2.11C121.28,251.48,122.62,250.38,122.65,248Z" transform="translate(-0.06 -2.05)" fill="#fff"/><path d="M97.37,231c-.05,2.9-1.83,5-4.29,5-2.87,0-5.15-2.56-5.09-5.75.06-2.81,2.68-6.73,4.44-6.63C94.75,223.71,97.43,227.72,97.37,231Z" transform="translate(-0.06 -2.05)" fill="#fff"/><path d="M39.77,8.1h.5A1.37,1.37,0,0,0,40.81,8a1.09,1.09,0,0,0,.4-.31L45,3.11a1.29,1.29,0,0,1,.5-.4,1.61,1.61,0,0,1,.61-.11h2L43.47,8a4,4,0,0,1-.4.41,1.67,1.67,0,0,1-.41.27,1.39,1.39,0,0,1,.46.3,2,2,0,0,1,.36.5l3.3,6.09H44.73a1.7,1.7,0,0,1-.35,0,.9.9,0,0,1-.25-.09.57.57,0,0,1-.17-.14,1.11,1.11,0,0,1-.12-.19l-2.68-4.85a.79.79,0,0,0-.32-.34,1.3,1.3,0,0,0-.58-.1h-.7l-.71,5.75H36.52l1.59-13h2.34Z" transform="translate(-0.06 -2.05)" fill="#fff"/><path d="M47.9,15.62,49,6.37h1.13a.8.8,0,0,1,.54.17.7.7,0,0,1,.19.55l-.06,1.2a5,5,0,0,1,1.56-1.54,3.41,3.41,0,0,1,1.76-.51,2.29,2.29,0,0,1,.93.18,1.94,1.94,0,0,1,.72.54,2.52,2.52,0,0,1,.46.87A4,4,0,0,1,56.41,9c0,.11,0,.23,0,.35s0,.24,0,.36l-.69,5.88H53.45L53.75,13q.13-1.06.21-1.76l.13-1.1.07-.61c0-.14,0-.23,0-.27s0-.08,0-.11A1.37,1.37,0,0,0,54,8.32a.82.82,0,0,0-.68-.26,1.59,1.59,0,0,0-.76.22,2.92,2.92,0,0,0-.76.61,4.69,4.69,0,0,0-.66,1,6.07,6.07,0,0,0-.49,1.24l-.5,4.54Z" transform="translate(-0.06 -2.05)" fill="#fff"/><path d="M61.07,15.75a3.84,3.84,0,0,1-1.42-.26,3.12,3.12,0,0,1-1.12-.75,3.52,3.52,0,0,1-.74-1.21,4.67,4.67,0,0,1-.27-1.65,6.39,6.39,0,0,1,.38-2.23,5.67,5.67,0,0,1,1-1.79,4.9,4.9,0,0,1,1.54-1.19,4.22,4.22,0,0,1,1.88-.43,3.82,3.82,0,0,1,1.42.26,3.15,3.15,0,0,1,1.13.75,3.5,3.5,0,0,1,.75,1.21,4.68,4.68,0,0,1,.27,1.65,6.27,6.27,0,0,1-.39,2.22,5.84,5.84,0,0,1-1,1.79,4.93,4.93,0,0,1-1.54,1.2A4.19,4.19,0,0,1,61.07,15.75Zm.2-1.71a1.7,1.7,0,0,0,1-.32,2.77,2.77,0,0,0,.77-.85,4.46,4.46,0,0,0,.49-1.25,6.38,6.38,0,0,0,.17-1.49,2.86,2.86,0,0,0-.38-1.66,1.33,1.33,0,0,0-1.16-.53,1.72,1.72,0,0,0-1,.31,2.65,2.65,0,0,0-.77.86,4.62,4.62,0,0,0-.49,1.25,6.42,6.42,0,0,0-.17,1.5,2.86,2.86,0,0,0,.38,1.65A1.33,1.33,0,0,0,61.27,14Z" transform="translate(-0.06 -2.05)" fill="#fff"/><path d="M67,6.38h1.68a.62.62,0,0,1,.39.12.42.42,0,0,1,.17.3l.54,4.93q0,.4,0,.78t0,.76q.14-.38.28-.76l.31-.78,2-5a.66.66,0,0,1,.23-.3A.6.6,0,0,1,73,6.36h1a.54.54,0,0,1,.37.12.47.47,0,0,1,.16.3l.77,5q.06.4.11.78t.08.76q.1-.38.21-.76t.27-.78l1.79-4.93a.63.63,0,0,1,.59-.41H80l-3.81,9.23H74.45q-.28,0-.34-.4l-.88-5.34c0-.24-.06-.47-.08-.69L73,9.54l-.13.36-2.2,5.32q-.16.4-.48.4H68.57Z" transform="translate(-0.06 -2.05)" fill="#fff"/><path d="M80.09,15.62,81.71,2.24H83.9L82.28,15.62Z" transform="translate(-0.06 -2.05)" fill="#fff"/><path d="M92.26,8.52A2.57,2.57,0,0,1,92,9.66a2.32,2.32,0,0,1-.89.92,6.29,6.29,0,0,1-1.73.7,18.11,18.11,0,0,1-2.79.46v.12q0,2.18,1.85,2.18a2.92,2.92,0,0,0,.7-.08,3,3,0,0,0,.54-.18,2.52,2.52,0,0,0,.41-.24l.34-.24a2.52,2.52,0,0,1,.31-.18.74.74,0,0,1,.33-.08.53.53,0,0,1,.22,0,.45.45,0,0,1,.18.15l.57.68a9.55,9.55,0,0,1-.94.83,5.25,5.25,0,0,1-.94.58,4.47,4.47,0,0,1-1,.33,5.88,5.88,0,0,1-1.16.11,3.78,3.78,0,0,1-1.47-.27,3.22,3.22,0,0,1-1.12-.77,3.48,3.48,0,0,1-.72-1.21,4.61,4.61,0,0,1-.26-1.58,6.52,6.52,0,0,1,.16-1.43,6.39,6.39,0,0,1,.45-1.33A5.65,5.65,0,0,1,85.78,8a5,5,0,0,1,1-.92,4.48,4.48,0,0,1,1.2-.6,4.41,4.41,0,0,1,1.4-.22,3.58,3.58,0,0,1,1.27.21,2.86,2.86,0,0,1,.91.54,2.17,2.17,0,0,1,.54.73A1.94,1.94,0,0,1,92.26,8.52Zm-3-.72a1.93,1.93,0,0,0-.84.18,2.31,2.31,0,0,0-.7.52,3.35,3.35,0,0,0-.54.8,4.91,4.91,0,0,0-.36,1,15.62,15.62,0,0,0,1.8-.33,4.41,4.41,0,0,0,1.05-.4,1.19,1.19,0,0,0,.49-.46,1.15,1.15,0,0,0,.12-.52.74.74,0,0,0-.06-.28A.72.72,0,0,0,90,8.07a1,1,0,0,0-.31-.19A1.3,1.3,0,0,0,89.23,7.8Z" transform="translate(-0.06 -2.05)" fill="#fff"/><path d="M99.36,15.62a.72.72,0,0,1-.57-.19.7.7,0,0,1-.16-.48l.07-1.35a5.91,5.91,0,0,1-1.49,1.57,3,3,0,0,1-1.76.58,2.54,2.54,0,0,1-1-.21,2.11,2.11,0,0,1-.81-.63,3,3,0,0,1-.51-1.07,5.75,5.75,0,0,1-.18-1.53,7.27,7.27,0,0,1,.16-1.54,7.46,7.46,0,0,1,.46-1.43,6.8,6.8,0,0,1,.71-1.24,5.22,5.22,0,0,1,.91-1,4.18,4.18,0,0,1,1.08-.65,3.09,3.09,0,0,1,1.18-.23,2.74,2.74,0,0,1,1.13.22,2.85,2.85,0,0,1,.88.61l.6-4.83h2.18l-1.65,13.37ZM96.31,14a1.35,1.35,0,0,0,.74-.25,3.2,3.2,0,0,0,.73-.68,6,6,0,0,0,.65-1,8.21,8.21,0,0,0,.52-1.27l.28-2.24a1.69,1.69,0,0,0-.7-.47,2.4,2.4,0,0,0-.77-.13,1.75,1.75,0,0,0-1.08.37,3.23,3.23,0,0,0-.83,1,5.14,5.14,0,0,0-.54,1.34,6,6,0,0,0-.19,1.49,2.64,2.64,0,0,0,.31,1.44A1,1,0,0,0,96.31,14Z" transform="translate(-0.06 -2.05)" fill="#fff"/><path d="M110,9.05a2.81,2.81,0,0,1-.09.74,3.81,3.81,0,0,1-.22.61,5.27,5.27,0,0,1-.28.53q-.15.25-.29.5a3,3,0,0,0-.22.54,2.16,2.16,0,0,0-.09.63,1.51,1.51,0,0,0,.15.68q.15.31.33.63a6.81,6.81,0,0,1,.33.69,2.22,2.22,0,0,1,.15.85,2.89,2.89,0,0,1-.31,1.3,3.22,3.22,0,0,1-.88,1.08,4.38,4.38,0,0,1-1.4.73,6,6,0,0,1-1.87.27,6.14,6.14,0,0,1-1.53-.18,3.89,3.89,0,0,1-1.16-.49,2.33,2.33,0,0,1-.74-.74,1.8,1.8,0,0,1-.26-.94,2.1,2.1,0,0,1,.39-1.29,2.89,2.89,0,0,1,1-.84,4.83,4.83,0,0,1,1.37-.46,8.32,8.32,0,0,1,1.52-.14q.37,0,.72,0l.67.09c0-.1,0-.19-.06-.29a2,2,0,0,1,0-.31,2.8,2.8,0,0,1,.29-1.15,2.71,2.71,0,0,1-.77.36,3.77,3.77,0,0,1-1,.13,2.9,2.9,0,0,1-1-.17,2.3,2.3,0,0,1-.83-.52,2.52,2.52,0,0,1-.57-.88A3.28,3.28,0,0,1,103,9.83a3.58,3.58,0,0,1,.25-1.32A3.44,3.44,0,0,1,104,7.36a3.66,3.66,0,0,1,1.22-.81,4.34,4.34,0,0,1,1.69-.31,3.84,3.84,0,0,1,1,.12,3.23,3.23,0,0,1,.85.36h2.58l-.1.72a.93.93,0,0,1-.14.37.51.51,0,0,1-.3.21l-.95.25a2.82,2.82,0,0,1,.07.38A3.63,3.63,0,0,1,110,9.05Zm-2.24,6.6a2.18,2.18,0,0,0,0-.25c0-.08,0-.16,0-.23q-.49-.08-.9-.12T106,15a4.84,4.84,0,0,0-1,.1,2.66,2.66,0,0,0-.72.26,1.12,1.12,0,0,0-.41.38.88.88,0,0,0-.13.46.91.91,0,0,0,.43.82,2.51,2.51,0,0,0,1.33.28,3.15,3.15,0,0,0,.92-.13,2.25,2.25,0,0,0,.71-.35,1.66,1.66,0,0,0,.46-.53A1.36,1.36,0,0,0,107.71,15.65Zm-1.45-4.37a1.33,1.33,0,0,0,.71-.19,1.73,1.73,0,0,0,.52-.5,2.31,2.31,0,0,0,.32-.69,2.86,2.86,0,0,0,.11-.78,1.52,1.52,0,0,0-.31-1,1.15,1.15,0,0,0-.92-.36,1.4,1.4,0,0,0-.71.18,1.59,1.59,0,0,0-.51.47,2.11,2.11,0,0,0-.31.67,3,3,0,0,0-.1.78,1.64,1.64,0,0,0,.31,1.07A1.1,1.1,0,0,0,106.27,11.29Z" transform="translate(-0.06 -2.05)" fill="#fff"/><path d="M119.21,8.52A2.57,2.57,0,0,1,119,9.66a2.32,2.32,0,0,1-.89.92,6.29,6.29,0,0,1-1.73.7,18.11,18.11,0,0,1-2.79.46v.12q0,2.18,1.85,2.18a2.92,2.92,0,0,0,.7-.08,3,3,0,0,0,.54-.18,2.52,2.52,0,0,0,.41-.24l.34-.24a2.52,2.52,0,0,1,.31-.18A.74.74,0,0,1,118,13a.53.53,0,0,1,.22,0,.45.45,0,0,1,.18.15l.57.68a9.55,9.55,0,0,1-.94.83,5.25,5.25,0,0,1-.94.58,4.47,4.47,0,0,1-1,.33,5.88,5.88,0,0,1-1.16.11,3.78,3.78,0,0,1-1.47-.27,3.22,3.22,0,0,1-1.12-.77,3.48,3.48,0,0,1-.72-1.21,4.61,4.61,0,0,1-.26-1.58,6.52,6.52,0,0,1,.16-1.43A6.39,6.39,0,0,1,112,9.15,5.65,5.65,0,0,1,112.73,8a5,5,0,0,1,1-.92,4.48,4.48,0,0,1,1.2-.6,4.41,4.41,0,0,1,1.4-.22,3.58,3.58,0,0,1,1.27.21,2.86,2.86,0,0,1,.91.54,2.17,2.17,0,0,1,.54.73A1.94,1.94,0,0,1,119.21,8.52Zm-3-.72a1.93,1.93,0,0,0-.84.18,2.31,2.31,0,0,0-.7.52,3.35,3.35,0,0,0-.54.8,4.91,4.91,0,0,0-.36,1,15.62,15.62,0,0,0,1.8-.33,4.41,4.41,0,0,0,1.05-.4,1.19,1.19,0,0,0,.49-.46,1.15,1.15,0,0,0,.12-.52.74.74,0,0,0-.06-.28.72.72,0,0,0-.18-.26,1,1,0,0,0-.31-.19A1.3,1.3,0,0,0,116.17,7.8Z" transform="translate(-0.06 -2.05)" fill="#fff"/><path d="M251.69,2.38l-.23,1.86h-5.24l-.45,3.7h4.11l-.22,1.79h-4.11l-.47,3.8h5.26l-.23,1.86h-7.6l1.6-13Z" transform="translate(-0.06 -2.05)" fill="#fff"/><path d="M254.51,10.4l-2.14-4.24h2a.63.63,0,0,1,.32.06.5.5,0,0,1,.17.22l1.27,2.75.12-.22.14-.23L258,6.47a.94.94,0,0,1,.22-.23.47.47,0,0,1,.27-.08h2l-3.25,4.25,2.38,5h-2a.5.5,0,0,1-.36-.12.86.86,0,0,1-.2-.28l-1.41-3.24-.1.2-.11.18L253.41,15a1.91,1.91,0,0,1-.26.28.52.52,0,0,1-.35.13h-2Z" transform="translate(-0.06 -2.05)" fill="#fff"/><path d="M260.48,18.41,262,6.15h1.13a1,1,0,0,1,.52.13.46.46,0,0,1,.22.43s0,.1,0,.19,0,.24,0,.44,0,.49,0,.85a5.91,5.91,0,0,1,1.51-1.59A3,3,0,0,1,267.06,6a2.53,2.53,0,0,1,1,.21,2.12,2.12,0,0,1,.81.63,3,3,0,0,1,.51,1.07,5.71,5.71,0,0,1,.18,1.52,7.4,7.4,0,0,1-.62,3,6.73,6.73,0,0,1-.71,1.24,5.2,5.2,0,0,1-.91,1,4.21,4.21,0,0,1-1.08.65,3.11,3.11,0,0,1-1.18.23,2.8,2.8,0,0,1-1.13-.22,2.58,2.58,0,0,1-.88-.62l-.46,3.72ZM266.2,7.76a1.36,1.36,0,0,0-.75.25,3.22,3.22,0,0,0-.73.68,5.87,5.87,0,0,0-.65,1,8.34,8.34,0,0,0-.52,1.28l-.27,2.24a1.71,1.71,0,0,0,.7.46,2.35,2.35,0,0,0,.78.14,1.74,1.74,0,0,0,1.08-.37,3.23,3.23,0,0,0,.83-1,5.16,5.16,0,0,0,.54-1.34,6,6,0,0,0,.19-1.49,2.64,2.64,0,0,0-.31-1.44A1,1,0,0,0,266.2,7.76Z" transform="translate(-0.06 -2.05)" fill="#fff"/><path d="M278.19,8.3a2.57,2.57,0,0,1-.25,1.13,2.32,2.32,0,0,1-.89.92,6.3,6.3,0,0,1-1.73.7,18.12,18.12,0,0,1-2.79.46v.12q0,2.18,1.84,2.18a2.92,2.92,0,0,0,.7-.08,3,3,0,0,0,.54-.18,2.52,2.52,0,0,0,.41-.24l.34-.24.31-.18a.74.74,0,0,1,.33-.08.52.52,0,0,1,.22,0,.46.46,0,0,1,.18.15l.57.68a9.44,9.44,0,0,1-.94.83,5.22,5.22,0,0,1-.94.58,4.44,4.44,0,0,1-1,.33,5.88,5.88,0,0,1-1.16.11,3.78,3.78,0,0,1-1.47-.27,3.23,3.23,0,0,1-1.12-.77,3.48,3.48,0,0,1-.72-1.21,4.61,4.61,0,0,1-.26-1.58,6.49,6.49,0,0,1,.16-1.43A6.41,6.41,0,0,1,271,8.93a5.67,5.67,0,0,1,.73-1.16,5,5,0,0,1,1-.92,4.47,4.47,0,0,1,1.2-.6,4.41,4.41,0,0,1,1.4-.22,3.59,3.59,0,0,1,1.27.21,2.85,2.85,0,0,1,.91.54,2.17,2.17,0,0,1,.54.73A1.94,1.94,0,0,1,278.19,8.3Zm-3-.72a1.94,1.94,0,0,0-.84.18,2.32,2.32,0,0,0-.7.52,3.35,3.35,0,0,0-.54.8,4.94,4.94,0,0,0-.36,1,15.61,15.61,0,0,0,1.8-.33,4.42,4.42,0,0,0,1.05-.4,1.2,1.2,0,0,0,.5-.46,1.15,1.15,0,0,0,.12-.52.74.74,0,0,0-.06-.28.72.72,0,0,0-.18-.26,1,1,0,0,0-.32-.19A1.29,1.29,0,0,0,275.15,7.58Z" transform="translate(-0.06 -2.05)" fill="#fff"/><path d="M278.91,15.39,280,6.15h1.13a.91.91,0,0,1,.53.14.52.52,0,0,1,.21.46s0,.11,0,.22,0,.26,0,.48,0,.53,0,.92a5.77,5.77,0,0,1,1.24-1.68,2.11,2.11,0,0,1,1.4-.59,1.88,1.88,0,0,1,.75.16l-.41,2.12a2.21,2.21,0,0,0-.85-.19,1.76,1.76,0,0,0-1.4.77,6.27,6.27,0,0,0-1,2.39l-.49,4Z" transform="translate(-0.06 -2.05)" fill="#fff"/><path d="M289,6.16l-1.11,9.23h-2.2l1.11-9.23Zm.56-2.69a1.23,1.23,0,0,1-.12.54,1.52,1.52,0,0,1-.76.74,1.26,1.26,0,0,1-.52.11,1.22,1.22,0,0,1-.51-.11,1.48,1.48,0,0,1-.44-.3,1.44,1.44,0,0,1-.3-.44,1.31,1.31,0,0,1-.11-.54,1.32,1.32,0,0,1,.12-.55,1.55,1.55,0,0,1,.31-.46,1.45,1.45,0,0,1,.44-.31,1.22,1.22,0,0,1,.51-.11,1.27,1.27,0,0,1,.52.11,1.52,1.52,0,0,1,.45.3,1.45,1.45,0,0,1,.31.45A1.35,1.35,0,0,1,289.51,3.47Z" transform="translate(-0.06 -2.05)" fill="#fff"/><path d="M297.88,8.3a2.57,2.57,0,0,1-.25,1.13,2.32,2.32,0,0,1-.89.92A6.3,6.3,0,0,1,295,11a18.12,18.12,0,0,1-2.79.46v.12q0,2.18,1.84,2.18a2.92,2.92,0,0,0,.7-.08,3,3,0,0,0,.54-.18,2.52,2.52,0,0,0,.41-.24l.34-.24.31-.18a.74.74,0,0,1,.33-.08.52.52,0,0,1,.22,0,.46.46,0,0,1,.18.15l.57.68a9.44,9.44,0,0,1-.94.83,5.22,5.22,0,0,1-.94.58,4.44,4.44,0,0,1-1,.33,5.88,5.88,0,0,1-1.16.11,3.78,3.78,0,0,1-1.47-.27,3.23,3.23,0,0,1-1.12-.77,3.48,3.48,0,0,1-.72-1.21,4.61,4.61,0,0,1-.26-1.58,6.49,6.49,0,0,1,.16-1.43,6.41,6.41,0,0,1,.45-1.33,5.67,5.67,0,0,1,.73-1.16,5,5,0,0,1,1-.92,4.47,4.47,0,0,1,1.2-.6A4.41,4.41,0,0,1,295,6a3.59,3.59,0,0,1,1.27.21,2.85,2.85,0,0,1,.91.54,2.17,2.17,0,0,1,.54.73A1.94,1.94,0,0,1,297.88,8.3Zm-3-.72a1.94,1.94,0,0,0-.84.18,2.32,2.32,0,0,0-.7.52,3.35,3.35,0,0,0-.54.8,4.94,4.94,0,0,0-.36,1,15.61,15.61,0,0,0,1.8-.33,4.42,4.42,0,0,0,1.05-.4,1.2,1.2,0,0,0,.5-.46,1.15,1.15,0,0,0,.12-.52.74.74,0,0,0-.06-.28.72.72,0,0,0-.18-.26,1,1,0,0,0-.32-.19A1.29,1.29,0,0,0,294.84,7.58Z" transform="translate(-0.06 -2.05)" fill="#fff"/><path d="M298.6,15.39l1.11-9.24h1.13a.8.8,0,0,1,.54.17.7.7,0,0,1,.19.55l-.06,1.2a5,5,0,0,1,1.56-1.54A3.41,3.41,0,0,1,304.83,6a2.29,2.29,0,0,1,.93.18,1.94,1.94,0,0,1,.71.54,2.51,2.51,0,0,1,.46.87,4,4,0,0,1,.16,1.19c0,.11,0,.23,0,.35s0,.24,0,.36l-.69,5.88h-2.22l.31-2.58.21-1.76.13-1.1.07-.61c0-.14,0-.23,0-.27s0-.08,0-.11a1.37,1.37,0,0,0-.22-.86.82.82,0,0,0-.67-.26,1.59,1.59,0,0,0-.77.22,2.93,2.93,0,0,0-.76.61,4.69,4.69,0,0,0-.66,1,6.13,6.13,0,0,0-.49,1.24l-.5,4.54Z" transform="translate(-0.06 -2.05)" fill="#fff"/><path d="M314.49,14.6a4.22,4.22,0,0,1-.85.55,3.55,3.55,0,0,1-.91.29,6,6,0,0,1-1,.08,3.59,3.59,0,0,1-1.44-.27,3,3,0,0,1-1.08-.78,3.4,3.4,0,0,1-.67-1.21,5.13,5.13,0,0,1-.23-1.58,6.43,6.43,0,0,1,.36-2.15,5.79,5.79,0,0,1,1-1.8,4.94,4.94,0,0,1,1.54-1.24A4.14,4.14,0,0,1,313.12,6a3.44,3.44,0,0,1,1.56.32,3.39,3.39,0,0,1,1.15,1l-.71.85a1.13,1.13,0,0,1-.18.15.41.41,0,0,1-.23.07.46.46,0,0,1-.28-.09l-.29-.2a2.24,2.24,0,0,0-.41-.2,1.85,1.85,0,0,0-.64-.09,1.89,1.89,0,0,0-1,.28,2.68,2.68,0,0,0-.82.79,4.26,4.26,0,0,0-.57,1.23,5.61,5.61,0,0,0-.21,1.59,2.43,2.43,0,0,0,.45,1.57,1.48,1.48,0,0,0,1.21.55,2.13,2.13,0,0,0,.85-.15,2.88,2.88,0,0,0,.57-.32L314,13a.63.63,0,0,1,.4-.15.42.42,0,0,1,.21.06.73.73,0,0,1,.18.15l.57.68A8.27,8.27,0,0,1,314.49,14.6Z" transform="translate(-0.06 -2.05)" fill="#fff"/><path d="M323.92,8.3a2.57,2.57,0,0,1-.25,1.13,2.32,2.32,0,0,1-.89.92,6.3,6.3,0,0,1-1.73.7,18.12,18.12,0,0,1-2.79.46v.12q0,2.18,1.84,2.18a2.92,2.92,0,0,0,.7-.08,3,3,0,0,0,.54-.18,2.52,2.52,0,0,0,.41-.24l.34-.24.31-.18a.74.74,0,0,1,.33-.08.52.52,0,0,1,.22,0,.46.46,0,0,1,.18.15l.57.68a9.44,9.44,0,0,1-.94.83,5.22,5.22,0,0,1-.94.58,4.44,4.44,0,0,1-1,.33,5.88,5.88,0,0,1-1.16.11,3.78,3.78,0,0,1-1.47-.27,3.23,3.23,0,0,1-1.12-.77,3.48,3.48,0,0,1-.72-1.21,4.61,4.61,0,0,1-.26-1.58,6.49,6.49,0,0,1,.16-1.43,6.41,6.41,0,0,1,.45-1.33,5.67,5.67,0,0,1,.73-1.16,5,5,0,0,1,1-.92,4.47,4.47,0,0,1,1.2-.6A4.41,4.41,0,0,1,321,6a3.59,3.59,0,0,1,1.27.21,2.85,2.85,0,0,1,.91.54,2.17,2.17,0,0,1,.54.73A1.94,1.94,0,0,1,323.92,8.3Zm-3-.72a1.94,1.94,0,0,0-.84.18,2.32,2.32,0,0,0-.7.52,3.35,3.35,0,0,0-.54.8,4.94,4.94,0,0,0-.36,1,15.61,15.61,0,0,0,1.8-.33,4.42,4.42,0,0,0,1.05-.4,1.2,1.2,0,0,0,.5-.46,1.15,1.15,0,0,0,.12-.52.74.74,0,0,0-.06-.28.72.72,0,0,0-.18-.26,1,1,0,0,0-.32-.19A1.29,1.29,0,0,0,320.89,7.58Z" transform="translate(-0.06 -2.05)" fill="#fff"/></svg>