<svg id="Layer_1" data-name="Layer 1" xmlns="http://www.w3.org/2000/svg" viewBox="0 0 37.94 37.96">
  <title>lifesaver</title>
  <g>
    <path d="M32,16h0a1,1,0,0,1-1-1V14a1,1,0,0,1,1-1h0a1,1,0,0,1,1,1v1A1,1,0,0,1,32,16Z" transform="translate(-13.02 -13.02)" style="fill: #fff"/>
    <path d="M32,51h0a1,1,0,0,1-1-1V49a1,1,0,0,1,1-1h0a1,1,0,0,1,1,1v1A1,1,0,0,1,32,51Z" transform="translate(-13.02 -13.02)" style="fill: #fff"/>
    <path d="M48,32h0a1,1,0,0,1,1-1h1a1,1,0,0,1,1,1h0a1,1,0,0,1-1,1H49A1,1,0,0,1,48,32Z" transform="translate(-13.02 -13.02)" style="fill: #fff"/>
    <path d="M13,32h0a1,1,0,0,1,1-1h1a1,1,0,0,1,1,1h0a1,1,0,0,1-1,1H14A1,1,0,0,1,13,32Z" transform="translate(-13.02 -13.02)" style="fill: #fff"/>
    <path d="M15.33,26.77a.5.5,0,0,1-.42-.23A8.31,8.31,0,0,1,16,16.26l.08-.09a8.3,8.3,0,0,1,10.3-1.11.5.5,0,0,1-.54.84,7.29,7.29,0,0,0-9,1l-.08.09a7.3,7.3,0,0,0-1,9,.5.5,0,0,1-.42.77Z" transform="translate(-13.02 -13.02)" style="fill: #683e98"/>
    <path d="M48.93,26.77a.5.5,0,0,0,.42-.23,8.31,8.31,0,0,0-1.12-10.28l-.09-.09a8.3,8.3,0,0,0-10.3-1.11.5.5,0,0,0,.54.84,7.29,7.29,0,0,1,9,1l.08.09a7.3,7.3,0,0,1,1,9,.5.5,0,0,0,.42.77Z" transform="translate(-13.02 -13.02)" style="fill: #683e98"/>
    <path d="M15.33,37.77a.5.5,0,0,0-.42.23A8.31,8.31,0,0,0,16,48.28l.08.09a8.3,8.3,0,0,0,10.3,1.11.5.5,0,0,0-.54-.84,7.29,7.29,0,0,1-9-1l-.08-.09a7.3,7.3,0,0,1-1-9,.5.5,0,0,0-.42-.77Z" transform="translate(-13.02 -13.02)" style="fill: #683e98"/>
    <path d="M48.93,37.77a.5.5,0,0,1,.42.23,8.31,8.31,0,0,1-1.12,10.28l-.09.09a8.3,8.3,0,0,1-10.3,1.11.5.5,0,0,1,.54-.84,7.29,7.29,0,0,0,9-1l.08-.09a7.3,7.3,0,0,0,1-9,.5.5,0,0,1,.42-.77Z" transform="translate(-13.02 -13.02)" style="fill: #683e98"/>
    <path d="M32,14A18,18,0,1,0,50,32,18,18,0,0,0,32,14Zm0,27a9,9,0,1,1,9-9A9,9,0,0,1,32,41Z" transform="translate(-13.02 -13.02)" style="fill: #683e98"/>
    <path d="M32,20A12,12,0,1,0,44,32,12,12,0,0,0,32,20Zm0,21a9,9,0,1,1,9-9A9,9,0,0,1,32,41Z" transform="translate(-13.02 -13.02)" style="fill: #5a3096"/>
    <path d="M27.58,24.17l-3.66-8.24-.38.18-.19.1a18,18,0,0,0-7.67,8.23l8.37,3.38A9,9,0,0,1,27.58,24.17Z" transform="translate(-13.02 -13.02)" style="fill: #fff"/>
    <path d="M36.4,24.12l3.66-8.24.38.18.19.1a18,18,0,0,1,7.67,8.23l-8.37,3.38A9,9,0,0,0,36.4,24.12Z" transform="translate(-13.02 -13.02)" style="fill: #fff"/>
    <path d="M27.54,39.78,23.88,48l-.38-.18-.19-.1a18,18,0,0,1-7.67-8.23L24,36.14A9,9,0,0,0,27.54,39.78Z" transform="translate(-13.02 -13.02)" style="fill: #fff"/>
    <path d="M36.35,39.83,40,48.06l.38-.18.19-.1a18,18,0,0,0,7.67-8.23l-8.37-3.38A9,9,0,0,1,36.35,39.83Z" transform="translate(-13.02 -13.02)" style="fill: #fff"/>
  </g>
</svg>
