<?xml version="1.0" encoding="utf-8"?>
<!-- Generator: Adobe Illustrator 20.1.0, SVG Export Plug-In . SVG Version: 6.00 Build 0)  -->
<svg version="1.1" id="Layer_1" xmlns="http://www.w3.org/2000/svg" xmlns:xlink="http://www.w3.org/1999/xlink" x="0px" y="0px"
	 viewBox="0 0 28 28" style="enable-background:new 0 0 28 28;" xml:space="preserve">
<style type="text/css">
	.st0{fill:#FFFFFF;}
</style>
<g id="g3088-2_1_" transform="matrix(0.8763772,0,0,0.8763772,2209.9696,1216.7708)">
	<path id="path3003-8-4_1_" class="st0" d="M-2521.4-1384c10.5,0,21,0,31.4,0c-1.2,1.1-2.3,2.3-3.5,3.5c-1.4,1.4-2.8,2.8-4.3,4.2
		c-0.8,0.8-1.7,1.6-2.5,2.4c-1.4,1.4-2.9,2.8-4.3,4.2c-0.7,0.6-2,0.6-2.6-0.1C-2511.8-1374.5-2516.6-1379.2-2521.4-1384z"/>
	<path id="path3007-8-5_1_" class="st0" d="M-2521.7-1362c0-6.9,0-13.7,0-20.6c3.4,3.4,6.4,6.5,9.9,10
		C-2515.2-1369-2518.4-1365.5-2521.7-1362z"/>
	<path id="path3007-8-2-5_1_" class="st0" d="M-2489.8-1361.9c0-6.9,0-13.7,0-20.6c-3.4,3.4-6.4,6.5-9.9,10
		C-2496.3-1368.9-2493-1365.5-2489.8-1361.9z"/>
	<path id="path3015-4-4_1_" class="st0" d="M-2521.2-1360.9l10.2-10.9c0.7,0.7,2.2,2,2.9,2.7c1.7,1.6,3.4,1.5,5.1-0.1
		c0.7-0.7,1.9-1.9,2.6-2.5l10,10.8C-2500.9-1360.9-2510.8-1360.9-2521.2-1360.9z"/>
</g>
</svg>
