<?xml version="1.0" encoding="utf-8"?>
<!-- Generator: Adobe Illustrator 20.1.0, SVG Export Plug-In . SVG Version: 6.00 Build 0)  -->
<svg version="1.1" id="Layer_1" xmlns="http://www.w3.org/2000/svg" xmlns:xlink="http://www.w3.org/1999/xlink" x="0px" y="0px"
	 viewBox="0 0 28 28" style="enable-background:new 0 0 28 28;" xml:space="preserve">
<style type="text/css">
	.st0{fill:#FFFFFF;}
</style>
<g id="g2901">
	<g>
		<path id="path6910" class="st0" d="M4.4,3.8C3.4,4.7,1,9.5,8,18.5c7.4,9.5,13,8.3,14,7.5l-4.9-6.2c-0.9,0.7-1.8-0.1-3.6-1.9
			c-1.2-1.2-2.5-2.8-3.6-4.5c-0.8-1.2-1.4-2.5-0.5-3.2L4.4,3.8L4.4,3.8L4.4,3.8z"/>
		<path id="path6912" class="st0" d="M24.5,24c0.4-0.3,0.4-0.9,0.1-1.2l0,0c0,0-3.9-4.8-3.9-4.9c-0.3-0.4-0.9-0.4-1.2-0.1l-1.8,1.4
			l5,6.2C22.7,25.4,24.5,24,24.5,24L24.5,24L24.5,24z"/>
		<path id="path6914" class="st0" d="M12,8.1c0.4-0.3,0.4-0.9,0.1-1.2l0,0c0,0-4-5-4-5C7.8,1.5,7.3,1.5,6.9,1.8L5.1,3.2l5.1,6.4
			L12,8.1L12,8.1L12,8.1z"/>
	</g>
</g>
</svg>
